<svg id="Layer_1" data-name="Layer 1" xmlns="http://www.w3.org/2000/svg" viewBox="0 0 122.88 119.08"><defs><style>.cls-1{fill-rule:evenodd;}</style></defs><title>female-employee</title><path class="cls-1" d="M29.86,66.76a21.3,21.3,0,0,1-10-6.3c6.7-2.52,9.79-10.44,10.22-22.28.32-8.8-1.51-11.56,1.49-20.25C37.51.74,59.49-5.14,71.74,4.92,81.33,3.9,91,8.85,93.1,23.65c1.55,11.06-1.75,18,1.73,28.17a15.87,15.87,0,0,0,8.19,9.7c-2.62,2.5-6.4,4.15-11,5.26-3.51.86-9.86,1.52-17.25,1.91v5.19L82,83.49,61.43,99.86,40.87,83.63l5.49-9.22V68.84c-7.17-.34-13.24-1-16.5-2.08Zm62,25A71.82,71.82,0,0,0,80,74.83c33.21,12.85,33.47,9,42.91,44.25H0c9.42-35.2,9.7-31.41,42.91-44.25A71.82,71.82,0,0,0,31,91.75l9.22-.23,20.73,16.55L82.67,91.52l9.23.23Z"/></svg>