<svg xmlns="http://www.w3.org/2000/svg" data-name="Layer 1" viewBox="0 0 512 512"><path fill="#b28b6a" d="M367 213.5h74a30 30 0 0 1 30 30v231a30 30 0 0 1-30 30H101a60 60 0 0 1-60-60v-276"/><path fill="#b28b6a" d="M322 213.5h45l-326-45v6.212L322 213.5z"/><path fill="#a17855" d="M441 213.5h-45a30 30 0 0 1 30 30v231a30 30 0 0 1-30 30h45a30 30 0 0 0 30-30v-231a30 30 0 0 0-30-30Z"/><path fill="#a17855" d="M381.5 314.5H471v89h-89.5A44.5 44.5 0 0 1 337 359a44.5 44.5 0 0 1 44.5-44.5Z"/><path fill="#896848" d="M426 314.5h45v89h-45z"/><path fill="#a17855" d="M86 123.5h295a30 30 0 0 1 30 30v60H86a45 45 0 0 1-45-45 45 45 0 0 1 45-45Z"/><path fill="#24b378" d="M298.08 168.5a85 85 0 1 0-76.16 0"/><path fill="#3c3b41" d="M217 100h35.5v35.5a7.5 7.5 0 0 0 15 0V100H302a7.5 7.5 0 0 0 0-15h-34.5V50.5a7.5 7.5 0 1 0-15 0V85H217a7.5 7.5 0 0 0 0 15Zm224 106h-22.5v-52.5A37.542 37.542 0 0 0 381 116h-31.502a92.5 92.5 0 1 0-178.996 0H86a52.5 52.5 0 0 0-52.5 52.5v276A67.576 67.576 0 0 0 101 512h340a37.542 37.542 0 0 0 37.5-37.5v-231A37.542 37.542 0 0 0 441 206ZM260 15a77.603 77.603 0 0 1 72.405 105.259 7.433 7.433 0 0 0-.454 1.192 77.17 77.17 0 0 1-35.714 39.55h-72.474a77.17 77.17 0 0 1-35.714-39.55 7.433 7.433 0 0 0-.454-1.192A77.603 77.603 0 0 1 260 15ZM59.484 141.984A37.25 37.25 0 0 1 86 131h89.824a91.7 91.7 0 0 0 21.959 30H146a7.5 7.5 0 0 0 0 15h152.065l.02.002.027-.002H373a7.5 7.5 0 0 0 0-15h-50.783a91.7 91.7 0 0 0 21.959-30H381a22.525 22.525 0 0 1 22.5 22.5V206H86a37.5 37.5 0 0 1-26.516-64.016ZM463.5 396h-82a37 37 0 0 1 0-74h82Zm0-89h-82a52 52 0 0 0 0 104h82v63.5A22.525 22.525 0 0 1 441 497H101a52.56 52.56 0 0 1-52.5-52.5V205.193A52.335 52.335 0 0 0 86 221h355a22.525 22.525 0 0 1 22.5 22.5Zm-89 52a7.5 7.5 0 1 0 7.5-7.5 7.5 7.5 0 0 0-7.5 7.5Z"/></svg>