<svg xmlns="http://www.w3.org/2000/svg" viewBox="0 0 64 64"><path fill="#546e7a" d="M32.148 56.713a24.883 24.883 0 0 1-5.616-.646 24.53 24.53 0 0 1-15.379-10.983 24.782 24.782 0 0 1-1.428-2.628 1.5 1.5 0 1 1 2.716-1.27 21.921 21.921 0 0 0 1.257 2.31 21.693 21.693 0 1 0 6.92-29.888l-7.003 4.37a1.5 1.5 0 0 1-1.588-2.546l7.002-4.369a24.693 24.693 0 1 1 13.12 45.65Z"/><path fill="#546e7a" d="M9.356 38.09a1.5 1.5 0 0 1-1.468-1.205 24.71 24.71 0 0 1-.355-2.352 1.5 1.5 0 1 1 2.985-.304c.07.694.175 1.388.311 2.064a1.502 1.502 0 0 1-1.473 1.796zm3.465-19.885a1.501 1.501 0 0 1-1.407-2.02L15.38 5.443a1.5 1.5 0 0 1 2.814 1.04l-3.965 10.74a1.5 1.5 0 0 1-1.407.982z"/><path fill="#546e7a" d="M24.215 19.363a1.486 1.486 0 0 1-.153-.008L12.67 18.197a1.5 1.5 0 1 1 .303-2.984l11.391 1.16a1.5 1.5 0 0 1-.15 2.991Z"/><path fill="#9191e8" d="M21.344 44.156a1.5 1.5 0 0 1-1.06-2.56L30.5 31.379V21.096a1.5 1.5 0 0 1 3 0V32a1.5 1.5 0 0 1-.44 1.06L22.404 43.717a1.495 1.495 0 0 1-1.06.44Z"/></svg>