<svg xmlns="http://www.w3.org/2000/svg" enable-background="new 0 0 50 50" viewBox="0 0 50 50"><polygon fill="#545554" points="39.047 41.995 7.073 24.887 39.047 7.779 40.449 10.399 13.371 24.887 40.449 39.375"/><circle cx="39.748" cy="9.777" r="9.265" fill="#F06562"/><path fill="#EF4C4A" d="M39.7481,16.8675c-3.9098,0-7.0906-3.1808-7.0906-7.0906c0-3.9085,3.1808-7.0893,7.0906-7.0893
		c3.9091,0,7.0899,3.1808,7.0899,7.0893C46.838,13.6866,43.6572,16.8675,39.7481,16.8675z"/><circle cx="39.748" cy="40.223" r="9.265" fill="#FBD178"/><circle cx="10.252" cy="23.374" r="9.265" fill="#66BB6A"/><path fill="#439F47" d="M10.2525,30.464c-3.9098,0-7.0906-3.1808-7.0906-7.0906c0-3.9085,3.1808-7.0893,7.0906-7.0893
		c3.9091,0,7.0899,3.1808,7.0899,7.0893C17.3424,27.2832,14.1616,30.464,10.2525,30.464z"/><path fill="#EEC06E" d="M39.7482,47.3125c-3.9098,0-7.0906-3.1808-7.0906-7.0906c0-3.9085,3.1808-7.0893,7.0906-7.0893
		c3.9091,0,7.0899,3.1808,7.0899,7.0893C46.8381,44.1317,43.6573,47.3125,39.7482,47.3125z"/><path fill="#FFF" d="M40.1562 39.6194h-.0273v-1.7051c.4654.0668.8979.2421 1.2969.5263l.5898-.8345c-.5927-.4052-1.2216-.6318-1.8867-.6805v-.4624h-.5805v.4536c-1.1128.0575-1.9775.7234-1.9775 1.8276 0 1.1466.7768 1.5411 1.9775 1.8276v1.7597c-.5381-.0849-1.0611-.3477-1.5693-.7891l-.6621.7891c.6591.5743 1.4028.9038 2.2314.9884v.6621h.5805v-.6529c1.1519-.0565 2.0498-.707 2.0498-1.8369C42.1787 40.2941 41.3177 39.8924 40.1562 39.6194zM39.5484 39.4562c-.506-.1626-.8706-.3195-.8706-.8208 0-.4624.4046-.7067.8706-.7485V39.4562zM40.1289 42.3586v-1.6324c.5325.1598.9433.3248.9433.8526C41.0722 42.0667 40.6133 42.3087 40.1289 42.3586zM7.1141 23.0622v-.8131h.9831c.4107-1.3309 1.5354-2.24 2.9112-2.24 1.0019 0 1.7962.3623 2.3819 1.0869l-.6708.8508c-.586-.625-1.0266-.8035-1.7112-.8035-.7118 0-1.346.3794-1.6446 1.1058h2.2496v.8131H9.1652c-.0065.0754-.0096.1904-.0096.345 0 .1542.0096.3008.0285.4392h2.4293v.8131H9.4395c.34.6554.8539.9831 1.5408.9831.5631 0 1.0021-.1464 1.6446-.8035l.6712.8127c-.5862.725-1.3581 1.0873-2.3158 1.0873-1.3393 0-2.4026-.8283-2.8358-2.0796H7.1141v-.8131h.8508c-.0188-.1512-.0285-.3023-.0285-.4535 0-.1512.0031-.2615.0096-.3308H7.1141zM37.1282 11.1793h1.9366v-.5504l-.0406-.0614h-1.896V9.6707h1.3659l-2.049-3.456h1.3149l1.9267 3.2722h.0713l1.998-3.2722h1.2945l-2.12 3.456h1.3352v.8968h-1.886l-.0303.0614v.5504h1.9163v.8972h-1.9267v1.2638h-1.2742v-1.2638h-1.9366V11.1793z"/></svg>