<svg xmlns="http://www.w3.org/2000/svg" data-name="Layer 1" viewBox="0 0 512 512"><path fill="#e1e1e3" d="M474.27143,388H73.174a30,30,0,0,1-29.78311-33.60086L71.24676,124H504.27143V358A30,30,0,0,1,474.27143,388Z"/><path fill="#2370b5" d="M446.41858,356H41.91126a30,30,0,0,1-29.71989-34.09L39.42719,124H504.5L476.13847,330.09A30,30,0,0,1,446.41858,356Z"/><path fill="#1067ae" d="M459.5,124,431.13849,330.09A30,30,0,0,1,401.41858,356h45a30,30,0,0,0,29.71991-25.91L504.5,124Z"/><path fill="#3c3b41" d="M323.23242,206.50019H188.76758a7.5,7.5,0,0,0,0,15H323.23242a7.5,7.5,0,0,0,0-15Zm51.394-45H137.37354a7.5,7.5,0,0,0,0,15H374.62647a7.5,7.5,0,0,0,0-15Zm135.52685-42.42871A7.49982,7.49982,0,0,0,504.5,116.50019H39.42725a7.5006,7.5006,0,0,0-7.43018,6.47754L4.76123,320.88789a37.49468,37.49468,0,0,0,31.25653,42.14355,37.643,37.643,0,0,0,9.75812,20.5752,37.1163,37.1163,0,0,0,27.394,11.89355H474.27a37.54225,37.54225,0,0,0,37.5-37.5V126.18647l.16016-1.16382A7.501,7.501,0,0,0,510.15332,119.07148ZM41.91113,348.50019a22.49991,22.49991,0,0,1-22.28955-25.56738L45.96582,131.50019H495.897L468.7085,329.06757a22.58889,22.58889,0,0,1-22.29,19.43262Zm454.85889,9.5a22.52523,22.52523,0,0,1-22.5,22.5H73.16992a22.55485,22.55485,0,0,1-21.8338-17H446.41846a37.64844,37.64844,0,0,0,37.15039-32.38769L496.77,235.18525Z"/></svg>