<svg xmlns="http://www.w3.org/2000/svg" data-name="Layer 1" viewBox="0 0 512 512"><path d="M489.5 0h-77a7.5 7.5 0 0 0 0 15h77a7.508 7.508 0 0 1 7.5 7.5v77a7.5 7.5 0 0 0 15 0v-77A22.525 22.525 0 0 0 489.5 0ZM7.5 107a7.5 7.5 0 0 0 7.5-7.5v-77a7.508 7.508 0 0 1 7.5-7.5h77a7.5 7.5 0 0 0 0-15h-77A22.525 22.525 0 0 0 0 22.5v77a7.5 7.5 0 0 0 7.5 7.5Zm497 298a7.5 7.5 0 0 0-7.5 7.5v77a7.508 7.508 0 0 1-7.5 7.5h-77a7.5 7.5 0 0 0 0 15h77a22.525 22.525 0 0 0 22.5-22.5v-77a7.5 7.5 0 0 0-7.5-7.5Zm-405 92h-77a7.508 7.508 0 0 1-7.5-7.5v-77a7.5 7.5 0 0 0-15 0v77A22.525 22.525 0 0 0 22.5 512h77a7.5 7.5 0 0 0 0-15ZM75 112.5v77a37.542 37.542 0 0 0 37.5 37.5h77a37.542 37.542 0 0 0 37.5-37.5v-77A37.542 37.542 0 0 0 189.5 75h-77A37.542 37.542 0 0 0 75 112.5Zm15 0A22.525 22.525 0 0 1 112.5 90h77a22.525 22.525 0 0 1 22.5 22.5v77a22.525 22.525 0 0 1-22.5 22.5h-77A22.525 22.525 0 0 1 90 189.5Zm42.5 62h37a5 5 0 0 0 5-5v-37a5 5 0 0 0-5-5h-37a5 5 0 0 0-5 5v37a5 5 0 0 0 5 5Zm190 52.5h77a37.542 37.542 0 0 0 37.5-37.5v-77A37.542 37.542 0 0 0 399.5 75h-77a37.542 37.542 0 0 0-37.5 37.5v77a37.542 37.542 0 0 0 37.5 37.5ZM300 112.5A22.525 22.525 0 0 1 322.5 90h77a22.525 22.525 0 0 1 22.5 22.5v77a22.525 22.525 0 0 1-22.5 22.5h-77a22.525 22.525 0 0 1-22.5-22.5Zm42.5 62h37a5 5 0 0 0 5-5v-37a5 5 0 0 0-5-5h-37a5 5 0 0 0-5 5v37a5 5 0 0 0 5 5ZM377 300v-15h-15v15Zm15 75h15v-15h-15Zm-30-15h-15v15h15Zm-15-45h15v-15h-15Zm-98.5-103v15h15v-15ZM437 428.5v-45a7.5 7.5 0 0 0-7.5-7.5h-12a7.5 7.5 0 0 0 0 15h4.5v30h-97.5a7.5 7.5 0 0 0 0 15h105a7.5 7.5 0 0 0 7.5-7.5ZM322.5 346h77a7.5 7.5 0 0 0 0-15h-77a7.5 7.5 0 0 0 0 15Zm30 60h32a7.5 7.5 0 0 0 0-15h-32a7.5 7.5 0 0 0 0 15Zm-183-68.5h-37a5 5 0 0 0-5 5v37a5 5 0 0 0 5 5h37a5 5 0 0 0 5-5v-37a5 5 0 0 0-5-5Zm20-52.5h-77A37.542 37.542 0 0 0 75 322.5v77a37.542 37.542 0 0 0 37.5 37.5h77a37.542 37.542 0 0 0 37.5-37.5v-77a37.542 37.542 0 0 0-37.5-37.5ZM212 399.5a22.525 22.525 0 0 1-22.5 22.5h-77A22.525 22.525 0 0 1 90 399.5v-77a22.525 22.525 0 0 1 22.5-22.5h77a22.525 22.525 0 0 1 22.5 22.5Zm44-69.5a7.5 7.5 0 0 0-7.5 7.5v92a7.5 7.5 0 0 0 15 0v-92a7.5 7.5 0 0 0-7.5-7.5Zm-7.5-30h15v-15h-15ZM285 436h15v-15h-15Zm7.5-151a7.5 7.5 0 0 0-7.5 7.5v92a7.5 7.5 0 0 0 15 0v-92a7.5 7.5 0 0 0-7.5-7.5Zm24.5 81.5v32a7.5 7.5 0 0 0 15 0v-32a7.5 7.5 0 0 0-15 0ZM429.5 347a7.5 7.5 0 0 0 7.5-7.5v-47a7.5 7.5 0 0 0-7.5-7.5h-29.035a7.5 7.5 0 0 0 0 15H422v39.5a7.5 7.5 0 0 0 7.5 7.5ZM238.752 90h9.748v99.5a7.5 7.5 0 0 0 15 0v-107A7.5 7.5 0 0 0 256 75h-17.248a7.5 7.5 0 1 0 0 15ZM481 256a7.5 7.5 0 0 0-7.5-7.5h-435a7.5 7.5 0 0 0 0 15h435a7.5 7.5 0 0 0 7.5-7.5Z"/></svg>