<svg xmlns="http://www.w3.org/2000/svg" data-name="Layer 1" viewBox="0 0 512 512"><g data-name="&lt;Group&gt;"><g data-name="&lt;Group&gt;"><path fill="#ed664c" d="M476.62,319.37l18.25,1.77v35.54l-26.1,2.56a98.491,98.491,0,0,1-13.68,32.38l16.85,20.32-25.13,25.08-20.32-16.85a95.036,95.036,0,0,1-32.43,13.63l-2.56,26.35H355.91l-2.56-26.35a97.643,97.643,0,0,1-32.43-13.63L300.6,437.02l-25.13-25.08,16.85-20.32a93.859,93.859,0,0,1-9.8-19.22h-.01a94.472,94.472,0,0,1-3.87-13.16l-26.41-2.56V321.14l26.41-2.56a98.351,98.351,0,0,1,13.68-32.37l-16.85-20.33L300.6,240.8l20.32,16.86a94.86,94.86,0,0,1,32.43-13.64l2.56-26.35H391.5l2.56,26.35a97.455,97.455,0,0,1,32.43,13.64l20.32-16.86,24.82,25.08-16.85,20.33a94.692,94.692,0,0,1,13.69,32.37Zm-39.35,19.54a63.7,63.7,0,1,0-63.69,63.6A63.645,63.645,0,0,0,437.27,338.91Z" data-name="&lt;Group&gt;"/><path fill="#fdc75b" d="M476.62,199.28V319.37l-8.15-.79a94.692,94.692,0,0,0-13.69-32.37l16.85-20.33L446.81,240.8l-20.32,16.86a97.455,97.455,0,0,0-32.43-13.64l-2.56-26.35H355.91l-2.56,26.35a94.86,94.86,0,0,0-32.43,13.64L300.6,240.8l-25.13,25.08,16.85,20.33a98.351,98.351,0,0,0-13.68,32.37l-26.41,2.56v35.54l26.41,2.56a94.472,94.472,0,0,0,3.87,13.16l-.14.06H58.15a41.026,41.026,0,0,1-41.02-41.02V199.28ZM210.97,289.54a30.255,30.255,0,1,0-30.25,30.25A30.254,30.254,0,0,0,210.97,289.54Zm-71.79,0a30.255,30.255,0,1,0-30.26,30.25A30.263,30.263,0,0,0,139.18,289.54Z" data-name="&lt;Group&gt;"/><rect width="459.49" height="75.64" x="17.13" y="123.64" fill="#ed664c" data-name="&lt;Group&gt;"/><path fill="#fdc75b" d="M476.62 92.87v30.77H17.13V92.87A41.02 41.02 0 0 1 58.15 51.85H435.59A41.022 41.022 0 0 1 476.62 92.87zM373.58 275.31a63.6 63.6 0 1 1-63.7 63.6A63.645 63.645 0 0 1 373.58 275.31z" data-name="&lt;Group&gt;"/><path fill="#ed664c" d="M180.72 259.28a30.255 30.255 0 1 1-30.26 30.26A30.254 30.254 0 0 1 180.72 259.28zM108.92 259.28a30.255 30.255 0 1 1-30.25 30.26A30.263 30.263 0 0 1 108.92 259.28z" data-name="&lt;Group&gt;"/></g><g data-name="&lt;Group&gt;"><path d="M58.15,379H277.814a102.587,102.587,0,0,0,5.886,11.819l-13.618,16.538a7.073,7.073,0,0,0,.443,9.48l25.13,25.109a7,7,0,0,0,9.413.448l16.47-13.65a104.735,104.735,0,0,0,25.326,10.685l2.079,21.321A6.937,6.937,0,0,0,355.91,467H391.5a6.934,6.934,0,0,0,6.967-6.248l2.078-21.355a101.425,101.425,0,0,0,25.366-10.633L442.342,442.4a7,7,0,0,0,9.413-.429l25.13-25.078a7,7,0,0,0,.443-9.421l-13.642-16.452a105.075,105.075,0,0,0,10.686-25.3l21.246-2.077A7.057,7.057,0,0,0,502,356.68V321.14a6.893,6.893,0,0,0-6.2-6.967L484,313.016V92.87C484,66.392,462.074,45,435.59,45H58.15A48.058,48.058,0,0,0,10,92.87V331.44C10,357.918,31.671,379,58.15,379ZM488,350.333l-19.848,1.94a7.039,7.039,0,0,0-6.183,5.451A91.335,91.335,0,0,1,449.238,387.8a7,7,0,0,0,.472,8.285L462.481,411.5l-16.1,16.07L430.96,414.782a7,7,0,0,0-8.327-.453,87.738,87.738,0,0,1-30.042,12.627,6.916,6.916,0,0,0-5.5,6.092L385.147,453H362.263l-1.946-19.952a6.956,6.956,0,0,0-5.509-6.132A90.789,90.789,0,0,1,324.7,414.261a7,7,0,0,0-8.25.511L301.036,427.56l-16.1-16.068,12.775-15.405a7,7,0,0,0,.442-8.341,87.021,87.021,0,0,1-9.069-17.787c-.044-.117-.09-.232-.139-.345a87.719,87.719,0,0,1-3.461-11.858,7.133,7.133,0,0,0-6.281-5.483L259,350.326V327.5l20.2-1.948a7.067,7.067,0,0,0,6.217-5.45,91.2,91.2,0,0,1,12.74-30.067,7,7,0,0,0-.462-8.287l-12.77-15.416,16.106-16.071,15.417,12.791a7,7,0,0,0,8.333.451,87.543,87.543,0,0,1,30.038-12.634,6.815,6.815,0,0,0,5.5-6L362.263,225h22.884l1.946,19.862a6.907,6.907,0,0,0,5.509,6.087,90.518,90.518,0,0,1,30.1,12.64,7,7,0,0,0,8.256-.521l15.385-12.776L462.193,266.3l-12.8,15.445a7,7,0,0,0-.437,8.344,87.385,87.385,0,0,1,12.677,29.979,7,7,0,0,0,6.165,5.479l6.844.663a6.962,6.962,0,0,0,1.981.289c.222,0,.5-.013.722-.033L488,327.494ZM24,131H470v61H24ZM463.783,286.775l6.217-7.5v19.818C468,294.854,466.139,290.743,463.783,286.775ZM58.15,59H435.59C454.354,59,470,74.111,470,92.87V117H24V92.87A34.042,34.042,0,0,1,58.15,59ZM24,206H470v47.9l-18.024-18.021a7.125,7.125,0,0,0-9.541-.463l-16.514,13.663a104.685,104.685,0,0,0-25.351-10.688l-2.091-21.23A6.869,6.869,0,0,0,391.5,211H355.91a6.858,6.858,0,0,0-6.967,6.158l-2.078,21.31A101.151,101.151,0,0,0,321.5,249.085L305.07,235.433a7,7,0,0,0-9.415.423l-25.13,25.074a7,7,0,0,0-.444,9.419l13.643,16.46a104.947,104.947,0,0,0-10.684,25.282l-21.6,2.082A7.1,7.1,0,0,0,245,321.14v35.54a6.884,6.884,0,0,0,6.44,6.737L270.253,365H58.15C39.391,365,24,350.2,24,331.44Z" data-name="&lt;Compound Path&gt;"/><path d="M108.92 326.79a37.318 37.318 0 0 0 35.9-27.3 37.259 37.259 0 1 0 0-19.9 37.252 37.252 0 1 0-35.9 47.2zm71.8-60.51a23.255 23.255 0 1 1-23.26 23.26A23.281 23.281 0 0 1 180.72 266.28zm-71.8 0a23.255 23.255 0 1 1-23.25 23.26A23.286 23.286 0 0 1 108.92 266.28zM373.58 268.31a70.6 70.6 0 1 0 70.69 70.6A70.73 70.73 0 0 0 373.58 268.31zm0 127.2a56.6 56.6 0 1 1 56.69-56.6A56.714 56.714 0 0 1 373.58 395.51z" data-name="&lt;Compound Path&gt;"/></g></g></svg>